<svg id="SvgjsSvg1044" width="288" height="288" xmlns="http://www.w3.org/2000/svg" version="1.1" xmlns:xlink="http://www.w3.org/1999/xlink" xmlns:svgjs="http://svgjs.com/svgjs"><defs id="SvgjsDefs1045"></defs><g id="SvgjsG1046" transform="matrix(1,0,0,1,0,0)"><svg xmlns="http://www.w3.org/2000/svg" data-name="Layer 4" viewBox="0 0 64 64" width="288" height="288"><path d="M19.421,28.918a9.909,9.909,0,0,1,6.694-9.413,8.981,8.981,0,0,0-15.192,9.42,10.257,10.257,0,0,1,8.5-.007Z" fill="#ffffff" class="color000 svgShape"></path><path d="M56.328,34.157a1,1,0,0,1-.7-1.379,11.471,11.471,0,0,0,.956-4.638A10.9,10.9,0,0,0,45.97,17,10.645,10.645,0,0,0,36.3,23.538a1,1,0,0,1-1.691.235A7.325,7.325,0,0,0,28.94,21.05a6.94,6.94,0,0,0-1.048.078A7.815,7.815,0,0,0,21.42,28.95a8.251,8.251,0,0,0,.1,1.2,10.936,10.936,0,0,1,2.753,3.063,7.937,7.937,0,0,1,5.116-1.875,8.226,8.226,0,0,1,8.1,8.334,8.6,8.6,0,0,1-.491,2.858,7.737,7.737,0,0,1,2.739,1.833A8.033,8.033,0,0,1,41.932,49H54.87A6.969,6.969,0,0,0,59.9,46.814,7.652,7.652,0,0,0,62,41.5,7.438,7.438,0,0,0,56.328,34.157Z" fill="#ffffff" class="color000 svgShape"></path><path d="M35.417 44.13a1 1 0 0 1-.672-1.439 6.552 6.552 0 0 0 .738-3.024 6.226 6.226 0 0 0-6.1-6.334 5.987 5.987 0 0 0-4.606 2.187 1 1 0 0 1-1.684-.238A8.7 8.7 0 0 0 15.193 30a8.38 8.38 0 0 0-4.164 1.108h0A9.2 9.2 0 0 0 7.3 42.74a1 1 0 0 1-.7 1.384A5.967 5.967 0 0 0 2 50a6.073 6.073 0 0 0 1.706 4.251A5.626 5.626 0 0 0 7.774 56H34.226A5.9 5.9 0 0 0 40 50a6.073 6.073 0 0 0-1.706-4.251A5.7 5.7 0 0 0 35.417 44.13zM10 16a1 1 0 0 1-.707-.293l-3-3a1 1 0 0 1 1.414-1.414l3 3A1 1 0 0 1 10 16zM18 14a1 1 0 0 1-1-1V9a1 1 0 0 1 2 0v4A1 1 0 0 1 18 14zM7 24H3a1 1 0 0 1 0-2H7a1 1 0 0 1 0 2z" fill="#ffffff" class="color000 svgShape"></path></svg></g></svg>