<svg id="SvgjsSvg1033" width="288" height="288" xmlns="http://www.w3.org/2000/svg" version="1.1" xmlns:xlink="http://www.w3.org/1999/xlink" xmlns:svgjs="http://svgjs.com/svgjs"><defs id="SvgjsDefs1034"></defs><g id="SvgjsG1035"><svg xmlns="http://www.w3.org/2000/svg" width="288" height="288" viewBox="0 0 32 32"><path d="m 23.99995,4.99999 c -2.9157,0 -5.423,1.8022 -6.4727,4.3477 2.8746,0.79828 5.1654,2.9221 6.3438,5.6719 0.03569,-3.5e-4 0.08811,-0.01945 0.12305,-0.01953 H 23.9961 24 c 1.8874,0 3.6069,0.76631 4.8711,1.998 1.3073,-1.2708 2.1289,-3.0381 2.1289,-4.998 0,-3.8541 -3.1459,-7 -7,-7 z" paint-order="fill markers stroke" style="font-variant-ligatures:normal;font-variant-position:normal;font-variant-caps:normal;font-variant-numeric:normal;font-variant-alternates:normal;font-feature-settings:normal;text-indent:0;text-decoration-line:none;text-decoration-style:solid;text-decoration-color:#000;text-transform:none;text-orientation:mixed;shape-padding:0;isolation:auto;mix-blend-mode:normal" fill="#ffffff" class="color000 svgShape"></path><path d="m 14.99995,10.99999 c -2.9265,5.7e-4 -5.5382,1.6478 -6.9355,4.1719 C 7.71049,15.10666 7.363,15.00079 7.00195,15.00001 H 7 c -3.3018,0 -6,2.6981 -6,6 0,3.3019 2.6981,6 6,6 h 16.999997 c 2.7495,0 5,-2.2504 5,-5 0,-2.7496 -2.2505,-5 -5,-5 h -0.002 c -0.46089,0.0011 -0.96095,0.04674 -1.377,0.20312 -0.78319,-3.6198 -3.8154,-6.2024 -7.621,-6.2031 z" color="#000" paint-order="fill markers stroke" style="font-variant-ligatures:normal;font-variant-position:normal;font-variant-caps:normal;font-variant-numeric:normal;font-variant-alternates:normal;font-feature-settings:normal;text-indent:0;text-decoration-line:none;text-decoration-style:solid;text-decoration-color:#000;text-transform:none;text-orientation:mixed;shape-padding:0;isolation:auto;mix-blend-mode:normal" fill="#ffffff" class="color000 svgShape"></path></svg></g></svg>