<svg id="SvgjsSvg1001" width="288" height="288" xmlns="http://www.w3.org/2000/svg" version="1.1" xmlns:xlink="http://www.w3.org/1999/xlink" xmlns:svgjs="http://svgjs.com/svgjs"><defs id="SvgjsDefs1002"></defs><g id="SvgjsG1008" transform="matrix(1,0,0,1,0,0)"><svg xmlns="http://www.w3.org/2000/svg" data-name="Layer 1" viewBox="0 0 64 64" width="288" height="288"><path d="M10 62H42.72a9.67 9.67 0 0 0 0-19.33l-.65 0a7.64 7.64 0 0 0-6.79-4.36 7.34 7.34 0 0 0-4.88 1.85A10.1 10.1 0 0 0 21.21 34 10.35 10.35 0 0 0 11.1 44.53a7.32 7.32 0 0 0 0 .81A8.17 8.17 0 0 0 10 45.27 8.37 8.37 0 0 0 10 62zm0-14.73a5.69 5.69 0 0 1 1.85.3 1 1 0 0 0 1.44-1.1 9.31 9.31 0 0 1-.22-1.94A8.34 8.34 0 0 1 21.21 36 8.19 8.19 0 0 1 29 42.34a1 1 0 0 0 1.78.34 5.48 5.48 0 0 1 4.47-2.35 5.59 5.59 0 0 1 5.23 3.79 1 1 0 0 0 1.1.65 6.7 6.7 0 0 1 1.11-.1 7.68 7.68 0 0 1 0 15.33H10a6.37 6.37 0 0 1 0-12.73zM49.42 42.23l1.16 1.64A10.5 10.5 0 1 0 34 35.3h2a8.5 8.5 0 1 1 13.42 6.93z" fill="#ffffff" class="color000 svgShape"></path><path d="M61.64 34.53l-3.17-2.66a2 2 0 0 1-.65-2l1-4a1 1 0 0 0-.9-1.24l-4.13-.28a2 2 0 0 1-1.72-1.24l-1.54-3.84a1 1 0 0 0-1.46-.48L45.56 21a2 2 0 0 1-2.12 0l-3.51-2.2a1 1 0 0 0-1.46.48l-1.54 3.83a2 2 0 0 1-1.72 1.25l-4.13.28a1 1 0 0 0-.9 1.24l1 4a2 2 0 0 1-.65 2l-1.62 1.36 1.28 1.54 1.62-1.36a4 4 0 0 0 1.31-4l-.71-2.86 2.94-.2a4.06 4.06 0 0 0 3.44-2.5l1.09-2.73 2.5 1.57a4 4 0 0 0 4.24 0l2.5-1.57 1.09 2.74a4.07 4.07 0 0 0 3.44 2.49l2.94.2-.71 2.86a4 4 0 0 0 1.31 4l2.25 1.89-2.25 1.89a4 4 0 0 0-1.31 4l.71 2.86-2.94.2a4 4 0 0 0-1 .19l.62 1.9a1.94 1.94 0 0 1 .48-.09L57.92 46a1 1 0 0 0 .74-.41 1 1 0 0 0 .16-.83l-1-4a2 2 0 0 1 .65-2l3.17-2.66a1 1 0 0 0 0-1.54zM5 9a1 1 0 0 1 1 1H8a1 1 0 0 1 2 0h2A3 3 0 0 0 9 7a3 3 0 0 0-2 .78A3 3 0 0 0 5 7a3 3 0 0 0-3 3H4A1 1 0 0 1 5 9zM10 21h2a1 1 0 0 1 2 0h2a1 1 0 0 1 2 0h2a3 3 0 0 0-3-3 3 3 0 0 0-2 .78A3 3 0 0 0 13 18 3 3 0 0 0 10 21zM22 4a1 1 0 0 1 1 1h2a3 3 0 0 0-3-3 3 3 0 0 0-2 .78A3 3 0 0 0 18 2a3 3 0 0 0-3 3h2a1 1 0 0 1 2 0h2A1 1 0 0 1 22 4zM27 12a1 1 0 0 1 1 1h2a1 1 0 0 1 2 0h2a3 3 0 0 0-3-3 3 3 0 0 0-2 .78A3 3 0 0 0 27 10a3 3 0 0 0-3 3h2A1 1 0 0 1 27 12z" fill="#ffffff" class="color000 svgShape"></path></svg></g></svg>