<svg id="SvgjsSvg1012" width="288" height="288" xmlns="http://www.w3.org/2000/svg" version="1.1" xmlns:xlink="http://www.w3.org/1999/xlink" xmlns:svgjs="http://svgjs.com/svgjs"><defs id="SvgjsDefs1013"></defs><g id="SvgjsG1014" transform="matrix(1,0,0,1,0,0)"><svg xmlns="http://www.w3.org/2000/svg" viewBox="0 0 32 32" width="288" height="288"><g data-name="Layer 4" fill="#ffffff" class="color000 svgShape"><path d="M15.22,24.61a8.92,8.92,0,0,1-2.93-.49l-1.4-.48A8.1,8.1,0,0,0,6,23.51l-3.7,1a1,1,0,1,1-.54-1.92l3.69-1.06a10.23,10.23,0,0,1,6.12.17l1.4.48a7.09,7.09,0,0,0,4.87-.11l.54-.22a9.06,9.06,0,0,1,6.18-.17l1.54.51A1.1,1.1,0,0,0,27.21,22a1,1,0,1,1,1.41,1.42,3.13,3.13,0,0,1-3.19.75l-1.54-.51a7,7,0,0,0-4.8.13l-.55.21A8.83,8.83,0,0,1,15.22,24.61Z" fill="#ffffff" class="color000 svgShape"></path><path d="M9.94,23.31a1,1,0,0,1-.83-.44A6.92,6.92,0,0,1,7.94,19a7,7,0,0,1,14,0c0,.17,0,.34,0,.5a1,1,0,0,1-2-.13c0-.12,0-.25,0-.37a5,5,0,0,0-10,0,5,5,0,0,0,.83,2.76,1,1,0,0,1-.27,1.39A1,1,0,0,1,9.94,23.31Z" fill="#ffffff" class="color000 svgShape"></path><path d="M27.1 24.14a1 1 0 0 1-.5-.13 1 1 0 0 1-.39-1.31l-.08-.06a1 1 0 0 1-.41-1 1 1 0 0 1 .63-.78 1 1 0 0 1 1.08.12 1.23 1.23 0 0 0 .72.21c.56 0 .85-.29.85-.39s-.29-.39-.85-.39a1.09 1.09 0 0 1-1-.72 2.24 2.24 0 0 0-2.21-1.13 2.19 2.19 0 0 0-2.22 1.17 1 1 0 0 1-.45.65 1 1 0 0 1-.78.12 2.52 2.52 0 0 0-.54-.08h-.1c-1.18 0-1.85.56-1.85.86s.18.37.46.53a1 1 0 1 1-1 1.73A2.62 2.62 0 0 1 17 21.31c0-1.6 1.66-2.86 3.77-2.86h.35a4.47 4.47 0 0 1 3.82-1.86 4.39 4.39 0 0 1 3.84 1.91A2.5 2.5 0 0 1 31 20.84a2.62 2.62 0 0 1-2.85 2.39h0a2.09 2.09 0 0 1-.17.41A1 1 0 0 1 27.1 24.14zM15 11a1 1 0 0 1-1-1V7a1 1 0 0 1 2 0v3A1 1 0 0 1 15 11zM8.64 13.63a1 1 0 0 1-.71-.3L5.81 11.21A1 1 0 0 1 7.22 9.8l2.12 2.12a1 1 0 0 1 0 1.41A1 1 0 0 1 8.64 13.63zM6 20H3a1 1 0 0 1 0-2H6a1 1 0 0 1 0 2zM21.36 13.63a1 1 0 0 1-.7-.3 1 1 0 0 1 0-1.41L22.78 9.8a1 1 0 0 1 1.41 1.41l-2.12 2.12A1 1 0 0 1 21.36 13.63z" fill="#ffffff" class="color000 svgShape"></path></g></svg></g></svg>